<svg xmlns="http://www.w3.org/2000/svg" style="display:none">
<defs><linearGradient id="grad" x1="3" y1="2" x2="21" y2="23" gradientUnits="userSpaceOnUse"><stop stop-color="#00d4ff"/><stop offset="1" stop-color="#7b2cbf"/></linearGradient></defs>
<symbol id="shield" viewBox="0 0 24 24" fill="none" stroke="url(#grad)" stroke-width="2" stroke-linecap="round" stroke-linejoin="round"><path d="M12 2L3 7V12C3 16.97 6.84 21.66 12 23C17.16 21.66 21 16.97 21 12V7L12 2Z"/><path d="M9 12L11 14L15 10"/></symbol>
<symbol id="i-usb" viewBox="0 0 24 24" fill="none" stroke="currentColor" stroke-width="2"><rect x="4" y="4" width="16" height="16" rx="2"/><path d="M9 9h6v6H9z"/></symbol>
<symbol id="i-keyboard" viewBox="0 0 24 24" fill="none" stroke="currentColor" stroke-width="2"><rect x="2" y="6" width="20" height="12" rx="2"/><path d="M6 10h.01M6 14h12"/></symbol>
<symbol id="i-users" viewBox="0 0 24 24" fill="none" stroke="currentColor" stroke-width="2"><path d="M17 21v-2a4 4 0 0 0-4-4H5a4 4 0 0 0-4 4v2"/><circle cx="9" cy="7" r="4"/><path d="M23 21v-2a4 4 0 0 0-3-3.87M16 3.13a4 4 0 0 1 0 7.75"/></symbol>
<symbol id="i-shield-alert" viewBox="0 0 24 24" fill="none" stroke="currentColor" stroke-width="2"><path d="M12 22s8-4 8-10V5l-8-3-8 3v7c0 6 8 10 8 10z"/><path d="M12 8v4M12 16h.01"/></symbol>
<symbol id="i-clock" viewBox="0 0 24 24" fill="none" stroke="currentColor" stroke-width="2"><circle cx="12" cy="12" r="10"/><path d="M12 6v6l4 2"/></symbol>
<symbol id="i-shield-check" viewBox="0 0 24 24" fill="none" stroke="currentColor" stroke-width="2"><path d="M12 2L3 7v5c0 5.55 3.84 10.74 9 12 5.16-1.26 9-6.45 9-12V7l-9-5z"/><path d="M9 12l2 2 4-4"/></symbol>
<symbol id="i-lock" viewBox="0 0 24 24" fill="none" stroke="currentColor" stroke-width="2"><rect x="3" y="11" width="18" height="11" rx="2"/><path d="M7 11V7a5 5 0 0 1 10 0v4"/></symbol>
<symbol id="i-fingerprint" viewBox="0 0 24 24" fill="none" stroke="currentColor" stroke-width="2"><path d="M14.5 10c-.83 0-1.5-.67-1.5-1.5v-5c0-.83.67-1.5 1.5-1.5s1.5.67 1.5 1.5v5c0 .83-.67 1.5-1.5 1.5z"/><path d="M20.5 10H19V8.5c0-.83.67-1.5 1.5-1.5s1.5.67 1.5 1.5-.67 1.5-1.5 1.5z"/><path d="M9.5 14c.83 0 1.5.67 1.5 1.5v5c0 .83-.67 1.5-1.5 1.5S8 21.33 8 20.5v-5c0-.83.67-1.5 1.5-1.5z"/><path d="M3.5 14H5v1.5c0 .83-.67 1.5-1.5 1.5S2 16.33 2 15.5 2.67 14 3.5 14z"/><path d="M14 14.5c0-.83.67-1.5 1.5-1.5h5c.83 0 1.5.67 1.5 1.5s-.67 1.5-1.5 1.5h-5c-.83 0-1.5-.67-1.5-1.5z"/><path d="M15.5 19H14v1.5c0 .83.67 1.5 1.5 1.5s1.5-.67 1.5-1.5-.67-1.5-1.5-1.5z"/><path d="M10 9.5C10 8.67 9.33 8 8.5 8h-5C2.67 8 2 8.67 2 9.5S2.67 11 3.5 11h5c.83 0 1.5-.67 1.5-1.5z"/><path d="M8.5 5H10V3.5C10 2.67 9.33 2 8.5 2S7 2.67 7 3.5 7.67 5 8.5 5z"/></symbol>
<symbol id="i-monitor" viewBox="0 0 24 24" fill="none" stroke="currentColor" stroke-width="2"><rect x="2" y="3" width="20" height="14" rx="2"/><path d="M8 21h8M12 17v4"/></symbol>
<symbol id="i-box" viewBox="0 0 24 24" fill="none" stroke="currentColor" stroke-width="2"><path d="M21 16V8a2 2 0 0 0-1-1.73l-7-4a2 2 0 0 0-2 0l-7 4A2 2 0 0 0 3 8v8a2 2 0 0 0 1 1.73l7 4a2 2 0 0 0 2 0l7-4A2 2 0 0 0 21 16z"/><path d="M3.27 6.96L12 12.01l8.73-5.05M12 22.08V12"/></symbol>
<symbol id="i-finance" viewBox="0 0 24 24" fill="none" stroke="currentColor" stroke-width="2"><rect x="2" y="4" width="20" height="16" rx="2"/><path d="M2 10h20"/><path d="M12 4v16"/></symbol>
<symbol id="i-health" viewBox="0 0 24 24" fill="none" stroke="currentColor" stroke-width="2"><path d="M22 12h-4l-3 9L9 3l-3 9H2"/></symbol>
<symbol id="i-factory" viewBox="0 0 24 24" fill="none" stroke="currentColor" stroke-width="2"><path d="M2 20h20"/><path d="M5 20V8l7-5 7 5v12"/><rect x="9" y="12" width="6" height="8"/></symbol>
<symbol id="i-gov" viewBox="0 0 24 24" fill="none" stroke="currentColor" stroke-width="2"><path d="M12 2L2 7l10 5 10-5-10-5z"/><path d="M2 17l10 5 10-5"/><path d="M2 12l10 5 10-5"/></symbol>
<symbol id="i-code" viewBox="0 0 24 24" fill="none" stroke="currentColor" stroke-width="2"><polyline points="16 18 22 12 16 6"/><polyline points="8 6 2 12 8 18"/><line x1="12" y1="2" x2="12" y2="22"/></symbol>
<symbol id="i-globe" viewBox="0 0 24 24" fill="none" stroke="currentColor" stroke-width="2"><circle cx="12" cy="12" r="10"/><path d="M2 12h20"/><path d="M12 2a15.3 15.3 0 0 1 4 10 15.3 15.3 0 0 1-4 10 15.3 15.3 0 0 1-4-10 15.3 15.3 0 0 1 4-10z"/></symbol>
<symbol id="i-check-circle" viewBox="0 0 24 24" fill="none" stroke="currentColor" stroke-width="2"><circle cx="12" cy="12" r="10"/><path d="M9 12l2 2 4-4"/></symbol>
</svg>
